<svg width="855pt" height="730pt" viewBox="0.00 0.00 855.20 730.00" xmlns="http://www.w3.org/2000/svg" xmlns:xlink="http://www.w3.org/1999/xlink">
<g id="graph0" class="graph" transform="scale(1 1) rotate(0) translate(4 726)">
<title>TimeManagementApp</title>
<polygon fill="white" stroke="none" points="-4,4 -4,-726 851.2,-726 851.2,4 -4,4"></polygon>
<g id="clust1" class="cluster">
<title>cluster_db</title>
<path fill="none" stroke="blue" d="M204.46,-309C204.46,-309 827.2,-309 827.2,-309 833.2,-309 839.2,-315 839.2,-321 839.2,-321 839.2,-433 839.2,-433 839.2,-439 833.2,-445 827.2,-445 827.2,-445 204.46,-445 204.46,-445 198.46,-445 192.46,-439 192.46,-433 192.46,-433 192.46,-321 192.46,-321 192.46,-315 198.46,-309 204.46,-309"></path>
<text text-anchor="middle" x="515.83" y="-428.4" font-family="Times,serif" font-size="14.00">MongoDB Collections</text>
</g>
<g id="clust2" class="cluster">
<title>cluster_auth</title>
<path fill="none" stroke="green" d="M12.19,-284C12.19,-284 87.39,-284 87.39,-284 93.39,-284 99.39,-290 99.39,-296 99.39,-296 99.39,-457 99.39,-457 99.39,-463 93.39,-469 87.39,-469 87.39,-469 12.19,-469 12.19,-469 6.19,-469 0.19,-463 0.19,-457 0.19,-457 0.19,-296 0.19,-296 0.19,-290 6.19,-284 12.19,-284"></path>
<text text-anchor="middle" x="49.79" y="-452.4" font-family="Times,serif" font-size="14.00">Authentication</text>
</g>
<g id="clust3" class="cluster">
<title>cluster_tasks</title>
<path fill="none" stroke="orange" d="M212.24,-8C212.24,-8 314.4,-8 314.4,-8 320.4,-8 326.4,-14 326.4,-20 326.4,-20 326.4,-289 326.4,-289 326.4,-295 320.4,-301 314.4,-301 314.4,-301 212.24,-301 212.24,-301 206.24,-301 200.24,-295 200.24,-289 200.24,-289 200.24,-20 200.24,-20 200.24,-14 206.24,-8 212.24,-8"></path>
<text text-anchor="middle" x="263.32" y="-284.4" font-family="Times,serif" font-size="14.00">Task Management</text>
</g>
<g id="clust4" class="cluster">
<title>cluster_pomodoro</title>
<path fill="none" stroke="red" d="M440.81,-475C440.81,-475 567.88,-475 567.88,-475 573.88,-475 579.88,-481 579.88,-487 579.88,-487 579.88,-702 579.88,-702 579.88,-708 573.88,-714 567.88,-714 567.88,-714 440.81,-714 440.81,-714 434.81,-714 428.81,-708 428.81,-702 428.81,-702 428.81,-487 428.81,-487 428.81,-481 434.81,-475 440.81,-475"></path>
<text text-anchor="middle" x="504.34" y="-697.4" font-family="Times,serif" font-size="14.00">Pomodoro System</text>
</g>
<!-- Users -->
<g id="node1" class="node">
<title>Users</title>
<polygon fill="#a8c4f7" stroke="black" points="326.17,-384.8 200.46,-384.8 200.46,-343.2 326.17,-343.2 326.17,-384.8"></polygon>
<text text-anchor="middle" x="263.32" y="-368.2" font-family="Helvetica,sans-Serif" font-size="14.00">Users</text>
<text text-anchor="middle" x="263.32" y="-351.4" font-family="Helvetica,sans-Serif" font-size="14.00">(users_collection)</text>
</g>
<!-- Tasks -->
<g id="node2" class="node">
<title>Tasks</title>
<polygon fill="#a8c4f7" stroke="black" points="566.42,-358.8 442.27,-358.8 442.27,-317.2 566.42,-317.2 566.42,-358.8"></polygon>
<text text-anchor="middle" x="504.34" y="-342.2" font-family="Helvetica,sans-Serif" font-size="14.00">Tasks</text>
<text text-anchor="middle" x="504.34" y="-325.4" font-family="Helvetica,sans-Serif" font-size="14.00">(tasks_collection)</text>
</g>
<!-- Users&#45;&gt;Tasks -->
<g id="edge15" class="edge">
<title>Users-&gt;Tasks</title>
<path fill="none" stroke="#2a2a2a" d="M326.64,-351C326.64,-351 430.34,-351 430.34,-351"></path>
<polygon fill="#2a2a2a" stroke="#2a2a2a" points="430.34,-354.5 440.34,-351 430.34,-347.5 430.34,-354.5"></polygon>
<text text-anchor="middle" x="381.49" y="-355.2" font-family="Times,serif" font-size="14.00" fill="#2a2a2a">1:N</text>
</g>
<!-- Sessions -->
<g id="node3" class="node">
<title>Sessions</title>
<polygon fill="#a8c4f7" stroke="black" points="831.2,-411.8 685.25,-411.8 685.25,-370.2 831.2,-370.2 831.2,-411.8"></polygon>
<text text-anchor="middle" x="758.22" y="-395.2" font-family="Helvetica,sans-Serif" font-size="14.00">Sessions</text>
<text text-anchor="middle" x="758.22" y="-378.4" font-family="Helvetica,sans-Serif" font-size="14.00">(sessions_collection)</text>
</g>
<!-- Users&#45;&gt;Sessions -->
<g id="edge16" class="edge">
<title>Users-&gt;Sessions</title>
<path fill="none" stroke="#2a2a2a" d="M326.5,-379.93C326.5,-379.93 673.45,-379.93 673.45,-379.93"></path>
<polygon fill="#2a2a2a" stroke="#2a2a2a" points="673.45,-383.43 683.45,-379.93 673.45,-376.43 673.45,-383.43"></polygon>
<text text-anchor="middle" x="504.34" y="-399.2" font-family="Times,serif" font-size="14.00" fill="#2a2a2a">1:N</text>
</g>
<!-- Tasks&#45;&gt;Sessions -->
<g id="edge17" class="edge">
<title>Tasks-&gt;Sessions</title>
<path fill="none" stroke="#2a2a2a" d="M535.38,-359.13C535.38,-367.46 535.38,-375.07 535.38,-375.07 535.38,-375.07 673.43,-375.07 673.43,-375.07"></path>
<polygon fill="#2a2a2a" stroke="#2a2a2a" points="673.43,-378.57 683.43,-375.07 673.43,-371.57 673.43,-378.57"></polygon>
<text text-anchor="middle" x="628.56" y="-359.2" font-family="Times,serif" font-size="14.00" fill="#2a2a2a">1:N</text>
</g>
<!-- Login -->
<g id="node4" class="node">
<title>Login</title>
<polygon fill="#a8e0a8" stroke="black" points="76.29,-436 22.29,-436 22.29,-400 76.29,-400 76.29,-436"></polygon>
<text text-anchor="middle" x="49.29" y="-413.8" font-family="Helvetica,sans-Serif" font-size="14.00">/login</text>
</g>
<!-- Login&#45;&gt;Users -->
<g id="edge1" class="edge">
<title>Login-&gt;Users</title>
<path fill="none" stroke="#3a7d44" d="M76.74,-408.85C123.43,-408.85 213.3,-408.85 213.3,-408.85 213.3,-408.85 213.3,-396.63 213.3,-396.63"></path>
<polygon fill="#3a7d44" stroke="#3a7d44" points="216.8,-396.63 213.3,-386.63 209.8,-396.63 216.8,-396.63"></polygon>
<text text-anchor="middle" x="145.92" y="-415.2" font-family="Times,serif" font-size="14.00">authenticates</text>
</g>
<!-- Register -->
<g id="node5" class="node">
<title>Register</title>
<polygon fill="#a8e0a8" stroke="black" points="82.57,-382 16,-382 16,-346 82.57,-346 82.57,-382"></polygon>
<text text-anchor="middle" x="49.29" y="-359.8" font-family="Helvetica,sans-Serif" font-size="14.00">/register</text>
</g>
<!-- Register&#45;&gt;Users -->
<g id="edge2" class="edge">
<title>Register-&gt;Users</title>
<path fill="none" stroke="#3a7d44" d="M82.73,-364C82.73,-364 188.46,-364 188.46,-364"></path>
<polygon fill="#3a7d44" stroke="#3a7d44" points="188.46,-367.5 198.46,-364 188.46,-360.5 188.46,-367.5"></polygon>
<text text-anchor="middle" x="145.92" y="-368.2" font-family="Times,serif" font-size="14.00">creates</text>
</g>
<!-- Logout -->
<g id="node6" class="node">
<title>Logout</title>
<polygon fill="#a8e0a8" stroke="black" points="78.3,-328 20.27,-328 20.27,-292 78.3,-292 78.3,-328"></polygon>
<text text-anchor="middle" x="49.29" y="-305.8" font-family="Helvetica,sans-Serif" font-size="14.00">/logout</text>
</g>
<!-- Logout&#45;&gt;Users -->
<g id="edge3" class="edge">
<title>Logout-&gt;Users</title>
<path fill="none" stroke="#3a7d44" d="M78.45,-325.3C123.37,-325.3 204.35,-325.3 204.35,-325.3 204.35,-325.3 204.35,-331.32 204.35,-331.32"></path>
<polygon fill="#3a7d44" stroke="#3a7d44" points="200.85,-331.32 204.35,-341.32 207.85,-331.32 200.85,-331.32"></polygon>
<text text-anchor="middle" x="145.92" y="-321.2" font-family="Times,serif" font-size="14.00">logs out</text>
</g>
<!-- Dashboard -->
<g id="node7" class="node">
<title>Dashboard</title>
<polygon fill="#f7d88a" stroke="black" points="306.34,-160 220.29,-160 220.29,-124 306.34,-124 306.34,-160"></polygon>
<text text-anchor="middle" x="263.32" y="-137.8" font-family="Helvetica,sans-Serif" font-size="14.00">/dashboard</text>
</g>
<!-- Dashboard&#45;&gt;Tasks -->
<g id="edge4" class="edge">
<title>Dashboard-&gt;Tasks</title>
<path fill="none" stroke="#b36b00" d="M306.83,-142C368.33,-142 473.3,-142 473.3,-142 473.3,-142 473.3,-305.51 473.3,-305.51"></path>
<polygon fill="#b36b00" stroke="#b36b00" points="469.8,-305.51 473.3,-315.51 476.8,-305.51 469.8,-305.51"></polygon>
<text text-anchor="middle" x="381.49" y="-153.2" font-family="Times,serif" font-size="14.00">view/manage</text>
</g>
<!-- AddTask -->
<g id="node8" class="node">
<title>AddTask</title>
<polygon fill="#f7d88a" stroke="black" points="301.67,-106 224.96,-106 224.96,-70 301.67,-70 301.67,-106"></polygon>
<text text-anchor="middle" x="263.32" y="-83.8" font-family="Helvetica,sans-Serif" font-size="14.00">/add_task</text>
</g>
<!-- AddTask&#45;&gt;Tasks -->
<g id="edge5" class="edge">
<title>AddTask-&gt;Tasks</title>
<path fill="none" stroke="#b36b00" d="M302.04,-88C370.17,-88 504.34,-88 504.34,-88 504.34,-88 504.34,-305.6 504.34,-305.6"></path>
<polygon fill="#b36b00" stroke="#b36b00" points="500.84,-305.6 504.34,-315.6 507.84,-305.6 500.84,-305.6"></polygon>
<text text-anchor="middle" x="381.49" y="-99.2" font-family="Times,serif" font-size="14.00">create</text>
</g>
<!-- EditTask -->
<g id="node9" class="node">
<title>EditTask</title>
<polygon fill="#f7d88a" stroke="black" points="301.28,-52 225.36,-52 225.36,-16 301.28,-16 301.28,-52"></polygon>
<text text-anchor="middle" x="263.32" y="-29.8" font-family="Helvetica,sans-Serif" font-size="14.00">/edit_task</text>
</g>
<!-- EditTask&#45;&gt;Tasks -->
<g id="edge6" class="edge">
<title>EditTask-&gt;Tasks</title>
<path fill="none" stroke="#b36b00" d="M301.72,-34C376.71,-34 535.38,-34 535.38,-34 535.38,-34 535.38,-305.59 535.38,-305.59"></path>
<polygon fill="#b36b00" stroke="#b36b00" points="531.88,-305.59 535.38,-315.59 538.88,-305.59 531.88,-305.59"></polygon>
<text text-anchor="middle" x="381.49" y="-52.2" font-family="Times,serif" font-size="14.00">update</text>
</g>
<!-- DeleteTask -->
<g id="node10" class="node">
<title>DeleteTask</title>
<polygon fill="#f7d88a" stroke="black" points="309.07,-268 217.57,-268 217.57,-232 309.07,-232 309.07,-268"></polygon>
<text text-anchor="middle" x="263.32" y="-245.8" font-family="Helvetica,sans-Serif" font-size="14.00">/delete_task</text>
</g>
<!-- DeleteTask&#45;&gt;Tasks -->
<g id="edge7" class="edge">
<title>DeleteTask-&gt;Tasks</title>
<path fill="none" stroke="#b36b00" d="M263.32,-268.32C263.32,-289.83 263.32,-322.6 263.32,-322.6 263.32,-322.6 430.44,-322.6 430.44,-322.6"></path>
<polygon fill="#b36b00" stroke="#b36b00" points="430.44,-326.1 440.44,-322.6 430.44,-319.1 430.44,-326.1"></polygon>
<text text-anchor="middle" x="381.49" y="-278.2" font-family="Times,serif" font-size="14.00">remove</text>
</g>
<!-- CompleteTask -->
<g id="node11" class="node">
<title>CompleteTask</title>
<polygon fill="#f7d88a" stroke="black" points="318.4,-214 208.24,-214 208.24,-178 318.4,-178 318.4,-214"></polygon>
<text text-anchor="middle" x="263.32" y="-191.8" font-family="Helvetica,sans-Serif" font-size="14.00">/complete_task</text>
</g>
<!-- CompleteTask&#45;&gt;Tasks -->
<g id="edge8" class="edge">
<title>CompleteTask-&gt;Tasks</title>
<path fill="none" stroke="#b36b00" d="M313.73,-214.28C313.73,-248.75 313.73,-319.9 313.73,-319.9 313.73,-319.9 430.41,-319.9 430.41,-319.9"></path>
<polygon fill="#b36b00" stroke="#b36b00" points="430.41,-323.4 440.41,-319.9 430.41,-316.4 430.41,-323.4"></polygon>
<text text-anchor="middle" x="381.49" y="-219.2" font-family="Times,serif" font-size="14.00">complete</text>
</g>
<!-- Pomodoro -->
<g id="node12" class="node">
<title>Pomodoro</title>
<polygon fill="#f7a8a8" stroke="black" points="545.81,-681 462.88,-681 462.88,-645 545.81,-645 545.81,-681"></polygon>
<text text-anchor="middle" x="504.34" y="-658.8" font-family="Helvetica,sans-Serif" font-size="14.00">/pomodoro</text>
</g>
<!-- Pomodoro&#45;&gt;Sessions -->
<g id="edge9" class="edge">
<title>Pomodoro-&gt;Sessions</title>
<path fill="none" stroke="#b33a3a" d="M546.25,-663C626.67,-663 794.71,-663 794.71,-663 794.71,-663 794.71,-423.41 794.71,-423.41"></path>
<polygon fill="#b33a3a" stroke="#b33a3a" points="798.21,-423.41 794.71,-413.41 791.21,-423.41 798.21,-423.41"></polygon>
<text text-anchor="middle" x="628.56" y="-653.2" font-family="Times,serif" font-size="14.00">start session</text>
</g>
<!-- RecordSession -->
<g id="node13" class="node">
<title>RecordSession</title>
<polygon fill="#f7a8a8" stroke="black" points="561.75,-627 446.93,-627 446.93,-591 561.75,-591 561.75,-627"></polygon>
<text text-anchor="middle" x="504.34" y="-604.8" font-family="Helvetica,sans-Serif" font-size="14.00">/record_session</text>
</g>
<!-- RecordSession&#45;&gt;Sessions -->
<g id="edge10" class="edge">
<title>RecordSession-&gt;Sessions</title>
<path fill="none" stroke="#b33a3a" d="M561.95,-609C636.86,-609 758.22,-609 758.22,-609 758.22,-609 758.22,-423.81 758.22,-423.81"></path>
<polygon fill="#b33a3a" stroke="#b33a3a" points="761.72,-423.81 758.22,-413.81 754.72,-423.81 761.72,-423.81"></polygon>
<text text-anchor="middle" x="628.56" y="-600.2" font-family="Times,serif" font-size="14.00">record</text>
</g>
<!-- GetTaskTimes -->
<g id="node14" class="node">
<title>GetTaskTimes</title>
<polygon fill="#f7a8a8" stroke="black" points="561.37,-573 447.32,-573 447.32,-537 561.37,-537 561.37,-573"></polygon>
<text text-anchor="middle" x="504.34" y="-550.8" font-family="Helvetica,sans-Serif" font-size="14.00">/get_task_times</text>
</g>
<!-- GetTaskTimes&#45;&gt;Sessions -->
<g id="edge11" class="edge">
<title>GetTaskTimes-&gt;Sessions</title>
<path fill="none" stroke="#b33a3a" d="M561.74,-555C626.15,-555 721.74,-555 721.74,-555 721.74,-555 721.74,-423.62 721.74,-423.62"></path>
<polygon fill="#b33a3a" stroke="#b33a3a" points="725.24,-423.62 721.74,-413.62 718.24,-423.62 725.24,-423.62"></polygon>
<text text-anchor="middle" x="628.56" y="-547.2" font-family="Times,serif" font-size="14.00">fetch times</text>
</g>
<!-- GetTaskSessions -->
<g id="node15" class="node">
<title>GetTaskSessions</title>
<polygon fill="#f7a8a8" stroke="black" points="571.88,-519 436.81,-519 436.81,-483 571.88,-483 571.88,-519"></polygon>
<text text-anchor="middle" x="504.34" y="-496.8" font-family="Helvetica,sans-Serif" font-size="14.00">/get_task_sessions</text>
</g>
<!-- GetTaskSessions&#45;&gt;Sessions -->
<g id="edge12" class="edge">
<title>GetTaskSessions-&gt;Sessions</title>
<path fill="none" stroke="#b33a3a" d="M504.34,-482.66C504.34,-455.03 504.34,-405.9 504.34,-405.9 504.34,-405.9 673.28,-405.9 673.28,-405.9"></path>
<polygon fill="#b33a3a" stroke="#b33a3a" points="673.28,-409.4 683.28,-405.9 673.28,-402.4 673.28,-409.4"></polygon>
<text text-anchor="middle" x="628.56" y="-495.2" font-family="Times,serif" font-size="14.00">fetch sessions</text>
</g>
<!-- Analytics -->
<g id="node16" class="node">
<title>Analytics</title>
<polygon fill="#c9d0f7" stroke="black" points="300.5,-489 230.14,-489 226.14,-485 226.14,-453 296.5,-453 300.5,-457 300.5,-489"></polygon>
<polyline fill="none" stroke="black" points="296.5,-485 226.14,-485"></polyline>
<polyline fill="none" stroke="black" points="296.5,-485 296.5,-453"></polyline>
<polyline fill="none" stroke="black" points="296.5,-485 300.5,-489"></polyline>
<text text-anchor="middle" x="263.32" y="-466.8" font-family="Helvetica,sans-Serif" font-size="14.00">/analytics</text>
</g>
<!-- Analytics&#45;&gt;Tasks -->
<g id="edge13" class="edge">
<title>Analytics-&gt;Tasks</title>
<path fill="none" stroke="#4a4ab3" d="M300.86,-468C361.26,-468 473.3,-468 473.3,-468 473.3,-468 473.3,-370.69 473.3,-370.69"></path>
<polygon fill="#4a4ab3" stroke="#4a4ab3" points="476.8,-370.69 473.3,-360.69 469.8,-370.69 476.8,-370.69"></polygon>
<text text-anchor="middle" x="381.49" y="-421.2" font-family="Times,serif" font-size="14.00">analyze tasks</text>
</g>
<!-- Analytics&#45;&gt;Sessions -->
<g id="edge14" class="edge">
<title>Analytics-&gt;Sessions</title>
<path fill="none" stroke="#4a4ab3" d="M263.32,-452.76C263.32,-432.61 263.32,-402.95 263.32,-402.95 263.32,-402.95 673.42,-402.95 673.42,-402.95"></path>
<polygon fill="#4a4ab3" stroke="#4a4ab3" points="673.42,-406.45 683.42,-402.95 673.42,-399.45 673.42,-406.45"></polygon>
<text text-anchor="middle" x="504.34" y="-452.2" font-family="Times,serif" font-size="14.00">analyze sessions</text>
</g>
</g>
</svg>